<svg xmlns="http://www.w3.org/2000/svg" width="30" height="30" viewBox="0 0 30 30"><g transform="translate(369.905 -76.617)"><circle cx="15" cy="15" r="15" transform="translate(-369.905 76.617)" fill="#c2ecff"/><g transform="translate(-365.335 83.848)"><path d="M-263.83,206.443a5.662,5.662,0,0,0-5.661,5.662,5.662,5.662,0,0,0,5.661,5.662,5.662,5.662,0,0,0,5.662-5.662A5.662,5.662,0,0,0-263.83,206.443Z" transform="translate(274.005 -201.93)" fill="#febd00"/><path d="M-216.369,160.671a.941.941,0,0,0,.941-.941v-2.238a.941.941,0,0,0-.941-.941.941.941,0,0,0-.941.941v2.238A.941.941,0,0,0-216.369,160.671Z" transform="translate(226.544 -156.551)" fill="#febd00"/><path d="M-287.63,189.637a.938.938,0,0,0,.665.276.938.938,0,0,0,.665-.276.941.941,0,0,0,0-1.331l-1.582-1.582a.941.941,0,0,0-1.331,0,.941.941,0,0,0,0,1.331Z" transform="translate(292.192 -183.744)" fill="#febd00"/><path d="M-315.265,259.569a.941.941,0,0,0-.941-.941h-2.238a.941.941,0,0,0-.941.941.941.941,0,0,0,.941.941h2.238A.941.941,0,0,0-315.265,259.569Z" transform="translate(319.385 -249.394)" fill="#febd00"/><path d="M-136.788,258.627h-2.238a.941.941,0,0,0-.941.941.941.941,0,0,0,.941.941h2.238a.941.941,0,0,0,.941-.941A.941.941,0,0,0-136.788,258.627Z" transform="translate(156.197 -249.393)" fill="#febd00"/><path d="M-161.678,189.913a.938.938,0,0,0,.665-.276l1.582-1.582a.941.941,0,0,0,0-1.331.941.941,0,0,0-1.331,0l-1.582,1.582a.941.941,0,0,0,0,1.331A.938.938,0,0,0-161.678,189.913Z" transform="translate(176.8 -183.744)" fill="#febd00"/></g><path d="M-325.392,284.817a10.532,10.532,0,0,0-2,.168,29.728,29.728,0,0,0-8.582,3.386,11.533,11.533,0,0,0-5.807-2.245,10.281,10.281,0,0,0-1.79.134,22.344,22.344,0,0,0-5.359,1.7,14.74,14.74,0,0,0,12.851,7.512,14.742,14.742,0,0,0,12.95-7.689,14.676,14.676,0,0,0,.963-2.165l-.01,0A8.552,8.552,0,0,0-325.392,284.817Z" transform="translate(-19.074 -189.364)" fill="#269931"/></g></svg>