<svg xmlns="http://www.w3.org/2000/svg" width="30.314" height="30.314" viewBox="0 0 30.314 30.314"><g transform="translate(-830.888 -76.618)"><path d="M846.078,106.872a15.151,15.151,0,0,1-13.21-7.722,22.96,22.96,0,0,1,5.509-1.747,8.556,8.556,0,1,1,16.721-2.56,8.711,8.711,0,0,1-.091,1.25,10.835,10.835,0,0,1,2.059-.173,8.8,8.8,0,0,1,3.3.818,15.161,15.161,0,1,0-.98,2.23A15.153,15.153,0,0,1,846.078,106.872Z" transform="translate(0 0)" fill="#ff8533"/><path d="M915.786,180.6a8.561,8.561,0,0,0-8.166,11.116,10.545,10.545,0,0,1,1.84-.137,11.852,11.852,0,0,1,5.969,2.308,30.558,30.558,0,0,1,8.821-3.481,8.642,8.642,0,0,0,.091-1.25A8.555,8.555,0,0,0,915.786,180.6Z" transform="translate(-69.244 -94.317)" fill="#ffeb88"/><path d="M876.377,284.172a10.834,10.834,0,0,0-2.059.173,30.549,30.549,0,0,0-8.822,3.481,11.851,11.851,0,0,0-5.968-2.308,10.54,10.54,0,0,0-1.841.138,22.959,22.959,0,0,0-5.509,1.747,15.161,15.161,0,0,0,27.512-2.408l-.01,0A8.794,8.794,0,0,0,876.377,284.172Z" transform="translate(-19.311 -188.253)" fill="#553016"/></g></svg>