<svg xmlns="http://www.w3.org/2000/svg" xmlns:xlink="http://www.w3.org/1999/xlink" width="280" height="280" viewBox="0 0 280 280"><defs><clipPath id="a"><rect width="280" height="280" fill="none"/></clipPath></defs><g transform="translate(-193 2)"><g transform="translate(193 -2)"><g clip-path="url(#a)"><g clip-path="url(#a)"><g opacity="0.5"><g clip-path="url(#a)"><path d="M280,140A140,140,0,1,1,140,0,140,140,0,0,1,280,140" fill="#fff"/></g></g><path d="M107.225,103.836V93.181L101.846,83.9a4.522,4.522,0,0,0-4.008-2.321H67.775v22.257Z" transform="translate(66.119 79.585)" fill="#f4ac98" fill-rule="evenodd"/><path d="M102.093,109.263V75.72a3.2,3.2,0,0,0-3.165-3.272H61.061a3.288,3.288,0,0,0-3.272,3.272v33.543Z" transform="translate(56.377 70.677)" fill="#fff8f6" fill-rule="evenodd"/><path d="M52.931,85.376a3.85,3.85,0,0,1,3.8-3.8H85.737a3.856,3.856,0,0,1,3.27,1.9l4.324,7.594a3.852,3.852,0,0,0,3.27,1.9h28.375a3.784,3.784,0,0,1,3.8,3.8V138.54a3.782,3.782,0,0,1-3.8,3.8H56.728a3.781,3.781,0,0,1-3.8-3.8Z" transform="translate(51.637 79.585)" fill="#f7bca9" fill-rule="evenodd"/><path d="M100.755,146.283H57.613a5.58,5.58,0,0,1-5.589-5.7V86.262a5.6,5.6,0,0,1,5.589-5.591H85.565a5.551,5.551,0,0,1,4.923,2.789l4.437,7.709a2.1,2.1,0,0,0,1.821,1.106h29.011a5.649,5.649,0,0,1,5.694,5.591v12.555a1.792,1.792,0,1,1-3.584,0V97.866a2.087,2.087,0,0,0-2.11-2.005H96.747a5.686,5.686,0,0,1-4.923-2.89l-4.437-7.713a2,2,0,0,0-1.821-1H57.613a1.984,1.984,0,0,0-2.007,2v54.326a2.016,2.016,0,0,0,2.007,2.108h43.142a1.794,1.794,0,0,1,0,3.588" transform="translate(50.753 78.699)" fill="#df2228"/><path d="M93.266,95.861a1.789,1.789,0,0,1-1.551-.895l-5.383-9.281a2.721,2.721,0,0,0-2.456-1.426,1.794,1.794,0,0,1,0-3.588A6.343,6.343,0,0,1,89.443,83.9l5.374,9.271a1.791,1.791,0,0,1-1.551,2.693" transform="translate(80.078 78.699)" fill="#df2228"/><path d="M102.977,104.768a1.792,1.792,0,0,1-1.792-1.794V76.6a1.413,1.413,0,0,0-1.373-1.478H61.944A1.5,1.5,0,0,0,60.467,76.6V86.1a1.792,1.792,0,0,1-3.584,0V76.6a5.068,5.068,0,0,1,5.061-5.063H99.812a5.016,5.016,0,0,1,4.957,5.063v26.37a1.792,1.792,0,0,1-1.792,1.794" transform="translate(55.493 69.792)" fill="#df2228"/><path d="M91.422,79.614h-28.8a1.794,1.794,0,0,1,0-3.588h28.8a1.794,1.794,0,0,1,0,3.588" transform="translate(59.347 74.168)" fill="#df2228"/><path d="M79.493,84.259H74.853a1.794,1.794,0,0,1,0-3.588h4.641a1.794,1.794,0,0,1,0,3.588" transform="translate(71.275 78.699)" fill="#df2228"/><path d="M95.537,131.61a15.974,15.974,0,1,1,15.927-16.022A15.929,15.929,0,0,1,95.537,131.61" transform="translate(77.664 97.225)" fill="#fff" fill-rule="evenodd"/><path d="M95.537,99.661a15.974,15.974,0,0,0,0,31.949,15.708,15.708,0,0,0,12.817-6.5L104.208,122a10.9,10.9,0,0,1-8.671,4.334,10.743,10.743,0,0,1,0-21.486,10.881,10.881,0,0,1,3.487.66l-.942,4.712,10.461-3.769a15.823,15.823,0,0,0-13.005-6.786" transform="translate(77.664 97.225)" fill="#eb7761" fill-rule="evenodd"/><path d="M96.42,134.145a17.719,17.719,0,1,1,14.51-27.871A1.6,1.6,0,1,1,108.3,108.1a14.5,14.5,0,1,0,2.637,8.323,1.6,1.6,0,1,1,3.2,0A17.737,17.737,0,0,1,96.42,134.145" transform="translate(76.874 96.295)" fill="#df2228"/><path d="M93.814,126.26a12.441,12.441,0,0,1,0-24.882,12.89,12.89,0,0,1,4.087.65,1.6,1.6,0,1,1-1.013,3.038,9.857,9.857,0,0,0-3.074-.484,9.237,9.237,0,0,0,0,18.473,9.365,9.365,0,0,0,7.489-3.8,1.6,1.6,0,0,1,2.552,1.938,12.548,12.548,0,0,1-10.042,5.063" transform="translate(79.48 98.9)" fill="#df2228"/><path d="M89.845,109.676a1.6,1.6,0,0,1-1.571-1.91l.94-4.807a1.6,1.6,0,0,1,3.143.618l-.4,2.041,7.9-2.823a1.6,1.6,0,1,1,1.079,3.017l-10.555,3.769a1.591,1.591,0,0,1-.539.095" transform="translate(86.088 99.18)" fill="#df2228"/><path d="M244.6,99.641a3.233,3.233,0,0,1-3.238,3.238h-100.3l-9.481,9.481-9.481-9.481H21.927a3.163,3.163,0,0,1-3.238-3.238v-79.4A3.233,3.233,0,0,1,21.927,17H241.364a3.309,3.309,0,0,1,3.238,3.238Z" transform="translate(18.232 16.587)" fill="#fff" fill-rule="evenodd"/><path d="M127.557,110.289a1.97,1.97,0,0,1-1.391-.573l-8.9-8.908H17.9a5.144,5.144,0,0,1-5.2-5.2v-79.4a5.205,5.205,0,0,1,5.2-5.2H237.335a5.266,5.266,0,0,1,5.2,5.2V81.386a1.966,1.966,0,0,1-3.931,0V16.209a1.337,1.337,0,0,0-1.27-1.27H17.9a1.258,1.258,0,0,0-1.27,1.27v79.4a1.2,1.2,0,0,0,1.27,1.274H118.076a1.966,1.966,0,0,1,1.391.575l8.09,8.09,8.092-8.09a1.966,1.966,0,0,1,1.391-.575h100.3a1.26,1.26,0,0,0,1.27-1.274V90.521a1.966,1.966,0,0,1,3.931,0v5.085a5.207,5.207,0,0,1-5.2,5.2H137.854l-8.906,8.908a1.97,1.97,0,0,1-1.391.573" transform="translate(12.384 10.742)" fill="#d01"/><path d="M103.477,44.226h20.544a3.773,3.773,0,0,1,3.752,3.817v3.815H99.66V48.043a3.828,3.828,0,0,1,3.817-3.817" transform="translate(97.224 43.145)" fill="#f5ae9a" fill-rule="evenodd"/><rect width="20.163" height="3.817" transform="translate(200.893 83.554)" fill="#fce3d9"/><path d="M104.629,24.684h11.893A1.711,1.711,0,0,1,118.24,26.4v2.163H102.912V26.4a1.709,1.709,0,0,1,1.717-1.717" transform="translate(100.397 24.081)" fill="#f5ae9a" fill-rule="evenodd"/><path d="M119.434,57.558a9.822,9.822,0,0,0,2.226-6.233c0-3.435-1.717-15.838-4.39-24.677h-11.13c-2.671,8.839-4.388,21.241-4.388,24.677a10.129,10.129,0,0,0,2.163,6.233Z" transform="translate(99.266 25.997)" fill="#fff8f6" fill-rule="evenodd"/><path d="M106.305,39.461l-1.59,5.6h8.2l-1.654-5.6Z" transform="translate(102.156 38.496)" fill="#f5ae9a" fill-rule="evenodd"/><path d="M106.174,40.713a2.115,2.115,0,0,0,3.625,0,4.278,4.278,0,0,0-1.78-5.534c-.255,2.1-3.69,1.782-1.845,5.534" transform="translate(103.05 34.319)" fill="#f7bca9" fill-rule="evenodd"/><path d="M104.451,59.174a1.08,1.08,0,0,1-.855-.417,11.154,11.154,0,0,1-2.39-6.895c0-3.54,1.729-16.028,4.437-24.993a1.081,1.081,0,0,1,2.068.626c-2.55,8.447-4.342,20.856-4.342,24.367A9,9,0,0,0,105.3,57.43a1.079,1.079,0,0,1-.853,1.744m15.516,0a1.08,1.08,0,0,1-.838-1.764,8.682,8.682,0,0,0,1.985-5.547c0-3.513-1.794-15.923-4.342-24.367a1.081,1.081,0,0,1,2.068-.626c2.708,8.959,4.437,21.449,4.437,24.993a10.853,10.853,0,0,1-2.469,6.914,1.087,1.087,0,0,1-.842.4" transform="translate(98.732 25.461)" fill="#df2228"/><path d="M110.329,42.328a1.084,1.084,0,0,1-.966-1.567,3.038,3.038,0,0,0-.462-3.321,6.924,6.924,0,0,1-.84.788c-.822.68-1.164.96-.385,2.539a1.082,1.082,0,0,1-1.942.956c-1.531-3.113.022-4.4.948-5.162.533-.441.755-.654.794-.98a1.085,1.085,0,0,1,.616-.848,1.073,1.073,0,0,1,1.045.071,5.378,5.378,0,0,1,2.159,6.924,1.081,1.081,0,0,1-.968.6" transform="translate(102.52 33.784)" fill="#df2228"/><path d="M112.694,41.075h-7.187a1.081,1.081,0,1,1,0-2.161h7.187a1.081,1.081,0,0,1,0,2.161" transform="translate(101.874 37.963)" fill="#df2228"/><path d="M105.249,46.672a1.191,1.191,0,0,1-.3-.041,1.083,1.083,0,0,1-.743-1.337L105.8,39.7a1.081,1.081,0,1,1,2.08.591l-1.59,5.6a1.082,1.082,0,0,1-1.039.786" transform="translate(101.622 37.965)" fill="#df2228"/><path d="M110.218,46.675a1.08,1.08,0,0,1-1.037-.776L107.529,40.3a1.081,1.081,0,1,1,2.072-.614l1.654,5.6a1.081,1.081,0,0,1-.731,1.343,1.106,1.106,0,0,1-.306.045" transform="translate(104.857 37.962)" fill="#df2228"/><path d="M102.223,47.725a1.08,1.08,0,0,1-1.081-1.081V42.828a1.08,1.08,0,0,1,1.081-1.081h20.163a1.08,1.08,0,0,1,1.081,1.081v1.144a1.082,1.082,0,0,1-2.163,0v-.063h-18v2.736a1.08,1.08,0,0,1-1.081,1.081" transform="translate(98.67 40.727)" fill="#df2228"/><path d="M118.775,30.178H103.447a1.08,1.08,0,0,1-1.083-1.081V26.934a2.8,2.8,0,0,1,2.8-2.8h11.895a2.8,2.8,0,0,1,2.8,2.8V29.1a1.08,1.08,0,0,1-1.081,1.081m-14.248-2.161h13.165V26.934a.63.63,0,0,0-.634-.638H105.163a.63.63,0,0,0-.636.638Z" transform="translate(99.862 23.547)" fill="#df2228"/><path d="M109.194,30.066a4.9,4.9,0,1,1,0-9.793,4.844,4.844,0,0,1,4.9,4.9,3.713,3.713,0,0,1-.205,1.418,1.081,1.081,0,1,1-2.007-.8,2.264,2.264,0,0,0,.049-.616,2.707,2.707,0,0,0-2.734-2.736,2.735,2.735,0,1,0,0,5.47,1.081,1.081,0,0,1,0,2.161" transform="translate(101.748 19.778)" fill="#df2228"/><path d="M128.306,53.472H100.2a1.08,1.08,0,0,1-1.083-1.081V48.574a4.9,4.9,0,0,1,4.9-4.9h20.544a4.87,4.87,0,0,1,4.834,4.9v3.817a1.081,1.081,0,0,1-1.083,1.081m-27.03-2.161h25.949V48.574a2.707,2.707,0,0,0-2.671-2.734H104.01a2.738,2.738,0,0,0-2.734,2.734Z" transform="translate(96.691 42.611)" fill="#df2228"/><path d="M101.106,38.669a1.076,1.076,0,0,1-.751-.3l-1.908-1.845a1.081,1.081,0,1,1,1.5-1.555l1.906,1.843a1.08,1.08,0,0,1-.749,1.859" transform="translate(95.717 33.818)" fill="#df2228"/><path d="M99.2,41.533a1.08,1.08,0,0,1-.751-1.859l1.908-1.841a1.081,1.081,0,1,1,1.5,1.555l-1.908,1.843a1.08,1.08,0,0,1-.751.3" transform="translate(95.716 36.614)" fill="#df2228"/><path d="M99.968,38.725H97.3a1.081,1.081,0,0,1,0-2.161h2.671a1.081,1.081,0,1,1,0,2.161" transform="translate(93.864 35.67)" fill="#df2228"/><path d="M114.487,38.669a1.08,1.08,0,0,1-.749-1.859l1.906-1.843a1.081,1.081,0,1,1,1.5,1.555l-1.908,1.845a1.076,1.076,0,0,1-.751.3" transform="translate(110.636 33.818)" fill="#df2228"/><path d="M116.4,41.533a1.076,1.076,0,0,1-.751-.3l-1.908-1.843a1.081,1.081,0,1,1,1.5-1.555l1.906,1.841a1.08,1.08,0,0,1-.749,1.859" transform="translate(110.635 36.614)" fill="#df2228"/><path d="M118.673,38.725H116a1.081,1.081,0,1,1,0-2.161h2.671a1.081,1.081,0,0,1,0,2.161" transform="translate(112.112 35.67)" fill="#df2228"/><path d="M124.363,48.126H100.194a1.081,1.081,0,1,1,0-2.161h24.169a1.081,1.081,0,0,1,0,2.161" transform="translate(96.691 44.842)" fill="#df2228"/><path d="M99.685,62.29a1.083,1.083,0,0,1-.952-.567,8.965,8.965,0,0,1-.948-5.686l.192-1.456a1.082,1.082,0,0,1,2.145.281l-.194,1.462a6.877,6.877,0,0,0,.707,4.37,1.083,1.083,0,0,1-.437,1.466,1.1,1.1,0,0,1-.514.13m1.4-20.224a.875.875,0,0,1-.16-.014,1.08,1.08,0,0,1-.911-1.227l1.017-6.869a8.856,8.856,0,0,1,4.477-6.567l1.966-1.144a1.082,1.082,0,0,1,1.087,1.871l-1.972,1.146a6.765,6.765,0,0,0-3.42,5.016l-1.015,6.863a1.082,1.082,0,0,1-1.069.925" transform="translate(95.292 25.463)" fill="#df2228"/><path d="M115.866,64.3a1.081,1.081,0,0,1-.767-1.845l1.083-1.083a6.812,6.812,0,0,0,1.794-5.818l-.194-1.482a1.081,1.081,0,0,1,.932-1.211,1.066,1.066,0,0,1,1.213.93l.19,1.462a9.035,9.035,0,0,1-2.379,7.62l-1.108,1.11a1.085,1.085,0,0,1-.765.316m.952-23.023a1.082,1.082,0,0,1-1.069-.925l-1.017-6.869a6.7,6.7,0,0,0-2.8-4.619,1.082,1.082,0,0,1,1.254-1.762,8.824,8.824,0,0,1,3.686,6.069l1.017,6.865a1.08,1.08,0,0,1-.911,1.227.876.876,0,0,1-.16.014" transform="translate(108.751 26.248)" fill="#df2228"/><path d="M90.6,30.347c0,8.187-6.061,14.8-13.539,14.8s-13.539-6.612-13.539-14.8Z" transform="translate(61.967 29.605)" fill="#fce3d9" fill-rule="evenodd"/><path d="M77.058,29.112c7.477,0,13.539,1.1,13.539,2.44,0,1.416-6.061,2.519-13.539,2.519s-13.539-1.1-13.539-2.519c0-1.337,6.061-2.44,13.539-2.44" transform="translate(61.967 28.4)" fill="#f5ae9a" fill-rule="evenodd"/><path d="M72.937,51.833l5.2-1.81a5.116,5.116,0,0,0,.235-1.575c0-2.677-3.07-7.4-6.533-8.659,0,3.856-4.172,4.566-4.172,8.659a5.072,5.072,0,0,0,.316,1.575Z" transform="translate(66.008 38.818)" fill="#ec7b65" fill-rule="evenodd"/><path d="M77.719,36.068c-5.555,0-14.878-.5-14.878-3.856,0-3.285,9.323-3.777,14.878-3.777S92.6,28.926,92.6,32.211c0,3.358-9.321,3.856-14.878,3.856M66.474,32.239a42.689,42.689,0,0,0,11.245,1.156,42.689,42.689,0,0,0,11.245-1.156,43.977,43.977,0,0,0-11.245-1.13,43.989,43.989,0,0,0-11.245,1.13" transform="translate(61.305 27.739)" fill="#df2228"/><path d="M77.719,47.142c-8.2,0-14.878-7.238-14.878-16.134a1.338,1.338,0,0,1,2.677,0c0,7.422,5.472,13.461,12.2,13.461s12.2-6.039,12.2-13.461a1.337,1.337,0,1,1,2.675,0c0,8.9-6.673,16.134-14.876,16.134" transform="translate(61.305 28.945)" fill="#df2228"/><path d="M90.629,35.479a1.334,1.334,0,0,1-1.3-1.033c-1.383-5.881-6.251-9.99-11.845-9.99a11.573,11.573,0,0,0-8.044,3.325,1.338,1.338,0,1,1-1.859-1.926,14.214,14.214,0,0,1,9.9-4.072c6.843,0,12.782,4.955,14.451,12.051a1.338,1.338,0,0,1-1,1.608,1.352,1.352,0,0,1-.306.038m-26.21,0a1.366,1.366,0,0,1-.306-.038,1.338,1.338,0,0,1-1-1.608,15.286,15.286,0,0,1,1.557-4.06A1.339,1.339,0,0,1,67,31.1a12.506,12.506,0,0,0-1.276,3.343,1.342,1.342,0,0,1-1.3,1.033" transform="translate(61.539 21.25)" fill="#df2228"/><path d="M115.675,26.327H99.462a1.336,1.336,0,1,1,0-2.673h16.213a1.336,1.336,0,1,1,0,2.673m-26.919,0H55.932a1.336,1.336,0,1,1,0-2.673H88.756a1.336,1.336,0,1,1,0,2.673" transform="translate(53.259 23.076)" fill="#df2228"/><path d="M113.771,49.954H54.735a1.336,1.336,0,1,1,0-2.673h59.036a1.336,1.336,0,1,1,0,2.673" transform="translate(52.093 46.125)" fill="#df2228"/><path d="M87.991,49.954H86.73a1.336,1.336,0,1,1,0-2.673h1.26a1.336,1.336,0,1,1,0,2.673" transform="translate(83.306 46.125)" fill="#df2228"/><path d="M57.8,75.919a1.336,1.336,0,0,1-1.337-1.337V22a1.337,1.337,0,0,1,2.675,0v52.58A1.336,1.336,0,0,1,57.8,75.919" transform="translate(55.087 20.16)" fill="#df2228"/><path d="M84.3,75.919a1.336,1.336,0,0,1-1.337-1.337V22a1.337,1.337,0,0,1,2.675,0v52.58A1.336,1.336,0,0,1,84.3,75.919" transform="translate(80.934 20.16)" fill="#df2228"/><path d="M71.111,21.562a1.336,1.336,0,0,1-1.175-.7,3.911,3.911,0,0,1-.012-3.382c.3-.879.421-1.294.041-1.916a1.339,1.339,0,0,1,2.29-1.389,4.52,4.52,0,0,1,.2,4.176c-.257.745-.306.984-.172,1.231a1.336,1.336,0,0,1-.533,1.814,1.317,1.317,0,0,1-.64.166" transform="translate(67.836 13.202)" fill="#df2228"/><path d="M68,23.474a1.336,1.336,0,0,1-1.175-.7,3.894,3.894,0,0,1-.01-3.378c.3-.879.419-1.294.039-1.92a1.339,1.339,0,0,1,2.29-1.389,4.512,4.512,0,0,1,.2,4.178c-.255.747-.306.982-.172,1.229a1.336,1.336,0,0,1-.533,1.814,1.317,1.317,0,0,1-.64.166" transform="translate(64.803 15.069)" fill="#df2228"/><path d="M74.218,23.474a1.341,1.341,0,0,1-1.175-.7,3.9,3.9,0,0,1-.01-3.38c.3-.879.419-1.3.04-1.92a1.34,1.34,0,0,1,2.292-1.389,4.511,4.511,0,0,1,.2,4.178c-.255.747-.306.982-.17,1.227a1.34,1.34,0,0,1-.535,1.816,1.317,1.317,0,0,1-.64.166" transform="translate(70.867 15.069)" fill="#df2228"/><path d="M65.3,54a1.338,1.338,0,0,1-.452-2.6l22.747-8.187a1.338,1.338,0,1,1,.907,2.517L65.748,53.92A1.342,1.342,0,0,1,65.3,54" transform="translate(62.393 42.083)" fill="#df2228"/><path d="M88.043,54a1.342,1.342,0,0,1-.452-.081L64.842,45.733a1.338,1.338,0,1,1,.907-2.517L88.5,51.4a1.338,1.338,0,0,1-.452,2.6" transform="translate(62.394 42.083)" fill="#df2228"/><path d="M78.793,52.024a1.319,1.319,0,0,1-.423-.071,1.335,1.335,0,0,1-.846-1.691,3.806,3.806,0,0,0,.166-1.154c0-1.681-1.839-4.949-4.2-6.618a9.357,9.357,0,0,1-2.035,3.042c-1,1.122-1.794,2.009-1.794,3.576a3.988,3.988,0,0,0,.247,1.154,1.338,1.338,0,0,1-2.539.846,6.351,6.351,0,0,1-.385-2,7.64,7.64,0,0,1,2.473-5.358c.946-1.065,1.7-1.908,1.7-3.3a1.34,1.34,0,0,1,1.8-1.258c3.991,1.452,7.41,6.668,7.41,9.915a6.447,6.447,0,0,1-.3,2,1.342,1.342,0,0,1-1.268.917" transform="translate(65.348 38.156)" fill="#df2228"/><path d="M70.992,48.934A1.336,1.336,0,0,1,69.655,47.6V45.47a1.337,1.337,0,1,1,2.675,0V47.6a1.336,1.336,0,0,1-1.337,1.337" transform="translate(67.953 43.054)" fill="#df2228"/><path d="M65.337,48.218a1.337,1.337,0,0,1-.772-2.43L67.241,43.9a1.337,1.337,0,1,1,1.543,2.185l-2.677,1.887a1.33,1.33,0,0,1-.77.245" transform="translate(62.432 42.588)" fill="#df2228"/><path d="M78.09,48.218a1.33,1.33,0,0,1-.77-.245l-2.677-1.887A1.337,1.337,0,1,1,76.185,43.9l2.677,1.887a1.337,1.337,0,0,1-.772,2.43" transform="translate(72.266 42.589)" fill="#df2228"/><path d="M31.148,49.911l4.729,5.735A17.053,17.053,0,0,0,55.8,60.376,17.067,17.067,0,0,0,54.8,39.921l-4.729-5.676-7.509,6.207L41.02,38.619l-3.9,3.311L38.655,43.7Z" transform="translate(30.387 33.408)" fill="#fce3d9" fill-rule="evenodd"/><path d="M45.5,52.7,22.919,25.5l3.133-2.661L48.694,50.037Z" transform="translate(22.359 22.286)" fill="#ed826c" fill-rule="evenodd"/><path d="M49.537,63.279a18.138,18.138,0,0,1-13.936-6.5l-4.733-5.737a1.006,1.006,0,0,1,.138-1.414l5.32-4.376A1,1,0,1,1,37.6,46.809l-4.544,3.736L37.148,55.5a16.138,16.138,0,0,0,18.475,4.562,16.156,16.156,0,0,0-1.1-19.007l-4.087-4.9L43.7,41.724a1.005,1.005,0,1,1-1.282-1.549l7.509-6.207a1,1,0,0,1,1.413.13l4.729,5.676a18.18,18.18,0,0,1,1.067,21.66,1.022,1.022,0,0,1-.433.36,17.947,17.947,0,0,1-7.161,1.486" transform="translate(29.89 32.911)" fill="#df2228"/><path d="M40.7,48.543a1,1,0,0,1-.774-.364l-6.029-7.27a1,1,0,0,1,.122-1.407l3.9-3.313a.972.972,0,0,1,.735-.235,1,1,0,0,1,.686.356l6.091,7.274a1.006,1.006,0,0,1-1.543,1.29l-5.439-6.5-2.373,2.013,5.4,6.506a1,1,0,0,1-.772,1.646" transform="translate(32.839 35.071)" fill="#df2228"/><path d="M46,54.2a1,1,0,0,1-.774-.364L22.642,26.642a1,1,0,0,1,.122-1.407L25.9,22.574a1,1,0,0,1,1.422.121L47.953,47.469a1.005,1.005,0,0,1-1.545,1.286L26.426,24.763l-1.6,1.361L46.772,52.554A1,1,0,0,1,46,54.2" transform="translate(21.863 21.789)" fill="#df2228"/></g></g></g></g></svg>