<svg xmlns="http://www.w3.org/2000/svg" xmlns:xlink="http://www.w3.org/1999/xlink" width="280" height="280" viewBox="0 0 280 280"><defs><clipPath id="a"><rect width="280" height="280" fill="none"/></clipPath></defs><g clip-path="url(#a)"><g clip-path="url(#a)"><g opacity="0.5"><g clip-path="url(#a)"><path d="M280,140A140,140,0,1,1,140,0,140,140,0,0,1,280,140" fill="#fff"/></g></g><path d="M100.281,123.859l-4.99,4.87,6.7,6.573a3.443,3.443,0,0,0,4.87-4.87Z" transform="translate(92.962 120.832)" fill="#eb7761" fill-rule="evenodd"/><path d="M105.443,139.4a5.5,5.5,0,0,1-3.9-1.61l-6.685-6.563a2.077,2.077,0,0,1,0-2.957l4.992-4.868a2.069,2.069,0,0,1,2.892,2.959l-3.481,3.394,5.188,5.095a1.386,1.386,0,0,0,1.954.012,1.349,1.349,0,0,0,.4-.972,1.367,1.367,0,0,0-.4-.97l-2.313-2.313a2.07,2.07,0,0,1,2.926-2.928L109.338,130a5.51,5.51,0,0,1-3.9,9.406" transform="translate(91.942 119.808)" fill="#df2228"/><path d="M99.951,130.525a2.069,2.069,0,0,1-1.464-.6l-4.747-4.747a2.07,2.07,0,0,1,2.928-2.926l4.747,4.747a2.067,2.067,0,0,1-1.464,3.53" transform="translate(90.858 118.67)" fill="#df2228"/><path d="M57.54,79.42h68.631a8.15,8.15,0,0,1,8.183,8.074v54.772a8.244,8.244,0,0,1-8.183,8.185H57.54a8.172,8.172,0,0,1-8.183-8.185V87.494A8.08,8.08,0,0,1,57.54,79.42" transform="translate(48.151 77.479)" fill="#fff8f6" fill-rule="evenodd"/><path d="M57.54,79.42h68.631a8.15,8.15,0,0,1,8.183,8.074V96h-85V87.494A8.08,8.08,0,0,1,57.54,79.42" transform="translate(48.151 77.479)" fill="#eb7761" fill-rule="evenodd"/><path d="M95.928,141.247a16.912,16.912,0,1,0-16.913-16.913,16.9,16.9,0,0,0,16.913,16.913" transform="translate(77.084 104.798)" fill="#ee8670" fill-rule="evenodd"/><path d="M96.841,144.015a18.765,18.765,0,0,1,0-37.53,18.189,18.189,0,0,1,10.806,3.522A1.853,1.853,0,1,1,105.46,113a14.522,14.522,0,0,0-8.619-2.809,15.059,15.059,0,1,0,14.953,15.06,15.873,15.873,0,0,0-2.748-8.8,1.855,1.855,0,0,1,3.09-2.053,19.568,19.568,0,0,1,3.364,10.85,18.732,18.732,0,0,1-18.659,18.764" transform="translate(76.169 103.882)" fill="#df2228"/><path d="M131.067,90.583H54.579a1.853,1.853,0,1,1,0-3.706h76.488a1.853,1.853,0,1,1,0,3.706" transform="translate(51.437 84.754)" fill="#df2228"/><path d="M57.12,90.68a1.851,1.851,0,0,1-1.853-1.853V78.678a1.853,1.853,0,0,1,3.706,0V88.827A1.851,1.851,0,0,1,57.12,90.68" transform="translate(53.916 74.947)" fill="#df2228"/><path d="M64.466,90.68a1.851,1.851,0,0,1-1.853-1.853V78.678a1.853,1.853,0,0,1,3.706,0V88.827a1.851,1.851,0,0,1-1.853,1.853" transform="translate(61.083 74.947)" fill="#df2228"/><path d="M71.755,90.68A1.852,1.852,0,0,1,69.9,88.827V78.678a1.854,1.854,0,0,1,3.708,0V88.827a1.852,1.852,0,0,1-1.855,1.853" transform="translate(68.194 74.947)" fill="#df2228"/><path d="M79.1,90.68a1.851,1.851,0,0,1-1.853-1.853V78.678a1.853,1.853,0,0,1,3.706,0V88.827A1.851,1.851,0,0,1,79.1,90.68" transform="translate(75.361 74.947)" fill="#df2228"/><path d="M86.391,90.68a1.851,1.851,0,0,1-1.853-1.853V78.678a1.853,1.853,0,0,1,3.706,0V88.827a1.851,1.851,0,0,1-1.853,1.853" transform="translate(82.472 74.947)" fill="#df2228"/><path d="M103.081,153.225H58.346a9.993,9.993,0,0,1-9.927-10.04V88.521a9.876,9.876,0,0,1,9.927-10.036H63.8a1.853,1.853,0,0,1,0,3.706H58.346a6.21,6.21,0,0,0-6.221,6.33v54.664a6.287,6.287,0,0,0,6.221,6.334h44.735a1.853,1.853,0,1,1,0,3.706M135.269,133.8a1.851,1.851,0,0,1-1.853-1.855V88.521a6.424,6.424,0,0,0-5.656-6.338,1.856,1.856,0,1,1,.4-3.69,10.178,10.178,0,0,1,8.965,10.028v43.427a1.85,1.85,0,0,1-1.853,1.855M121.627,82.191h-8.183a1.853,1.853,0,0,1,0-3.706h8.183a1.853,1.853,0,1,1,0,3.706m-14.4,0H99.045a1.853,1.853,0,1,1,0-3.706h8.183a1.853,1.853,0,1,1,0,3.706m-14.514,0H84.53a1.853,1.853,0,1,1,0-3.706h8.183a1.853,1.853,0,0,1,0,3.706m-14.4,0H70.13a1.853,1.853,0,1,1,0-3.706h8.183a1.853,1.853,0,0,1,0,3.706" transform="translate(47.236 76.561)" fill="#df2228"/><path d="M72.2,96.879a1.946,1.946,0,0,1-1.962-1.853,1.759,1.759,0,0,1,1.744-1.853H72.2a1.853,1.853,0,1,1,0,3.706" transform="translate(68.517 90.896)" fill="#df2228"/><path d="M77.719,96.879a1.946,1.946,0,0,1-1.962-1.853A1.759,1.759,0,0,1,77.5,93.173h.217a1.853,1.853,0,0,1,0,3.706" transform="translate(73.905 90.896)" fill="#df2228"/><path d="M83.243,96.879a1.946,1.946,0,0,1-1.962-1.853,1.759,1.759,0,0,1,1.744-1.853h.217a1.853,1.853,0,1,1,0,3.706" transform="translate(79.294 90.896)" fill="#df2228"/><path d="M88.769,96.879A1.95,1.95,0,0,1,86.8,95.026a1.759,1.759,0,0,1,1.744-1.853h.221a1.853,1.853,0,0,1,0,3.706" transform="translate(84.681 90.896)" fill="#df2228"/><path d="M55.655,101.851A2,2,0,0,1,53.636,100a1.72,1.72,0,0,1,1.691-1.853h.328a1.853,1.853,0,0,1,0,3.706" transform="translate(52.325 95.746)" fill="#df2228"/><path d="M61.178,101.851A2,2,0,0,1,59.159,100a1.72,1.72,0,0,1,1.691-1.853h.328a1.853,1.853,0,1,1,0,3.706" transform="translate(57.713 95.746)" fill="#df2228"/><path d="M66.7,101.851A2,2,0,0,1,64.683,100a1.72,1.72,0,0,1,1.691-1.853H66.7a1.853,1.853,0,0,1,0,3.706" transform="translate(63.102 95.746)" fill="#df2228"/><path d="M72.2,101.851A1.946,1.946,0,0,1,70.234,100a1.76,1.76,0,0,1,1.744-1.853H72.2a1.853,1.853,0,1,1,0,3.706" transform="translate(68.517 95.746)" fill="#df2228"/><path d="M77.719,101.851A1.946,1.946,0,0,1,75.757,100,1.76,1.76,0,0,1,77.5,98.145h.217a1.853,1.853,0,0,1,0,3.706" transform="translate(73.905 95.746)" fill="#df2228"/><path d="M83.243,101.851A1.946,1.946,0,0,1,81.281,100a1.76,1.76,0,0,1,1.744-1.853h.217a1.853,1.853,0,1,1,0,3.706" transform="translate(79.294 95.746)" fill="#df2228"/><path d="M88.769,101.851A1.95,1.95,0,0,1,86.8,100a1.76,1.76,0,0,1,1.744-1.853h.221a1.853,1.853,0,0,1,0,3.706" transform="translate(84.681 95.746)" fill="#df2228"/><path d="M55.655,106.821a2,2,0,0,1-2.019-1.853,1.72,1.72,0,0,1,1.691-1.853h.328a1.853,1.853,0,1,1,0,3.706" transform="translate(52.325 100.595)" fill="#df2228"/><path d="M61.178,106.821a2,2,0,0,1-2.019-1.853,1.72,1.72,0,0,1,1.691-1.853h.328a1.853,1.853,0,1,1,0,3.706" transform="translate(57.713 100.595)" fill="#df2228"/><path d="M66.7,106.821a2,2,0,0,1-2.019-1.853,1.72,1.72,0,0,1,1.691-1.853H66.7a1.853,1.853,0,0,1,0,3.706" transform="translate(63.102 100.595)" fill="#df2228"/><path d="M72.2,106.821a1.946,1.946,0,0,1-1.962-1.853,1.76,1.76,0,0,1,1.744-1.853H72.2a1.853,1.853,0,1,1,0,3.706" transform="translate(68.517 100.595)" fill="#df2228"/><path d="M77.719,106.821a1.946,1.946,0,0,1-1.962-1.853,1.76,1.76,0,0,1,1.744-1.853h.217a1.853,1.853,0,0,1,0,3.706" transform="translate(73.905 100.595)" fill="#df2228"/><path d="M83.243,106.821a1.946,1.946,0,0,1-1.962-1.853,1.76,1.76,0,0,1,1.744-1.853h.217a1.853,1.853,0,1,1,0,3.706" transform="translate(79.294 100.595)" fill="#df2228"/><path d="M88.769,106.821a1.95,1.95,0,0,1-1.966-1.853,1.76,1.76,0,0,1,1.744-1.853h.221a1.853,1.853,0,0,1,0,3.706" transform="translate(84.681 100.595)" fill="#df2228"/><path d="M55.655,111.793a2,2,0,0,1-2.019-1.853,1.72,1.72,0,0,1,1.691-1.853h.328a1.853,1.853,0,1,1,0,3.706" transform="translate(52.325 105.445)" fill="#df2228"/><path d="M61.178,111.793a2,2,0,0,1-2.019-1.853,1.72,1.72,0,0,1,1.691-1.853h.328a1.853,1.853,0,1,1,0,3.706" transform="translate(57.713 105.445)" fill="#df2228"/><path d="M66.7,111.793a2,2,0,0,1-2.019-1.853,1.72,1.72,0,0,1,1.691-1.853H66.7a1.853,1.853,0,0,1,0,3.706" transform="translate(63.102 105.445)" fill="#df2228"/><path d="M72.2,111.793a1.946,1.946,0,0,1-1.962-1.853,1.76,1.76,0,0,1,1.744-1.853H72.2a1.853,1.853,0,1,1,0,3.706" transform="translate(68.517 105.445)" fill="#df2228"/><path d="M77.719,111.793a1.946,1.946,0,0,1-1.962-1.853,1.76,1.76,0,0,1,1.744-1.853h.217a1.853,1.853,0,0,1,0,3.706" transform="translate(73.905 105.445)" fill="#df2228"/><path d="M89.5,125.923a1.853,1.853,0,0,1-1.5-.755l-3.6-4.909a1.856,1.856,0,0,1,2.991-2.2l2.064,2.813,5.172-7.462a1.856,1.856,0,0,1,3.052,2.112l-6.654,9.6a1.869,1.869,0,0,1-1.5.8Z" transform="translate(81.987 109.862)" fill="#fff"/><path d="M244.9,98.53a3.233,3.233,0,0,1-3.238,3.238h-100.3l-9.481,9.479-9.481-9.479H22.225a3.163,3.163,0,0,1-3.238-3.238V19.13a3.233,3.233,0,0,1,3.238-3.238H241.662A3.309,3.309,0,0,1,244.9,19.13Z" transform="translate(18.523 15.504)" fill="#fff" fill-rule="evenodd"/><path d="M127.856,109.176a1.97,1.97,0,0,1-1.391-.573l-8.9-8.906H18.195a5.145,5.145,0,0,1-5.2-5.2V15.1a5.2,5.2,0,0,1,5.2-5.2H237.634a5.264,5.264,0,0,1,5.2,5.2V80.273a1.966,1.966,0,0,1-3.931,0V15.1a1.337,1.337,0,0,0-1.27-1.27H18.195a1.259,1.259,0,0,0-1.27,1.27v79.4a1.2,1.2,0,0,0,1.27,1.274H118.375a1.966,1.966,0,0,1,1.391.575l8.09,8.09,8.092-8.09a1.966,1.966,0,0,1,1.391-.575h100.3a1.26,1.26,0,0,0,1.27-1.274V89.408a1.966,1.966,0,0,1,3.931,0v5.085a5.209,5.209,0,0,1-5.2,5.2H138.153l-8.906,8.906a1.97,1.97,0,0,1-1.391.573" transform="translate(12.675 9.658)" fill="#d01"/><path d="M45.706,53.543a6.865,6.865,0,0,1,4.34-.877,7,7,0,0,1,.877-4.34,6.886,6.886,0,0,1,3.279-2.91,6.937,6.937,0,0,1-1.387-4.2,7.039,7.039,0,0,1,1.387-4.2,6.661,6.661,0,0,1-3.279-2.91,6.877,6.877,0,0,1-.877-4.34,7,7,0,0,1-7.3-4.2A6.566,6.566,0,0,1,38.6,26.993a6.7,6.7,0,0,1-4.2-1.432,6.778,6.778,0,0,1-2.91,3.325,6.97,6.97,0,0,1-4.34.877,6.852,6.852,0,0,1-.877,4.34,6.756,6.756,0,0,1-3.325,2.91,7.052,7.052,0,0,1,1.387,4.2,6.95,6.95,0,0,1-1.387,4.2,6.9,6.9,0,0,1,4.2,7.25,6.9,6.9,0,0,1,7.25,4.2,6.988,6.988,0,0,1,4.2-1.432,6.853,6.853,0,0,1,4.155,1.432,7.084,7.084,0,0,1,2.955-3.325" transform="translate(22.381 24.936)" fill="#fce3d9" fill-rule="evenodd"/><path d="M35.106,29.16A8.542,8.542,0,1,0,43.648,37.7a8.592,8.592,0,0,0-8.542-8.542" transform="translate(25.87 28.447)" fill="#f7bca9" fill-rule="evenodd"/><path d="M34.781,25.163a.783.783,0,0,1,.49.172,6.152,6.152,0,0,0,7.377,0,.776.776,0,0,1,.68-.148.785.785,0,0,1,.531.45,6.217,6.217,0,0,0,6.478,3.734.8.8,0,0,1,.652.223.781.781,0,0,1,.223.654,6.066,6.066,0,0,0,.776,3.846,5.918,5.918,0,0,0,2.9,2.58.786.786,0,0,1,.334,1.187,6.3,6.3,0,0,0-1.235,3.74,6.174,6.174,0,0,0,1.225,3.726.779.779,0,0,1,.132.682.789.789,0,0,1-.456.52,6.158,6.158,0,0,0-3.678,6.423.784.784,0,0,1-.875.879,6.05,6.05,0,0,0-3.846.776l-.01.006a6.318,6.318,0,0,0-2.626,2.963.784.784,0,0,1-.522.439.768.768,0,0,1-.67-.136,6.158,6.158,0,0,0-7.406,0,.8.8,0,0,1-.682.132.778.778,0,0,1-.52-.458,6.115,6.115,0,0,0-6.425-3.724.784.784,0,0,1-.877-.879,6.113,6.113,0,0,0-3.726-6.423.786.786,0,0,1-.324-1.2A6.171,6.171,0,0,0,23.931,41.6a6.314,6.314,0,0,0-1.235-3.74.783.783,0,0,1,.334-1.187,5.96,5.96,0,0,0,2.942-2.57,6.072,6.072,0,0,0,.78-3.856.788.788,0,0,1,.225-.654.8.8,0,0,1,.654-.223,6.139,6.139,0,0,0,3.854-.78,5.976,5.976,0,0,0,2.566-2.934.791.791,0,0,1,.527-.468.88.88,0,0,1,.2-.026M49.54,30.991a7.805,7.805,0,0,1-6.7-3.882,7.8,7.8,0,0,1-7.752.006A7.643,7.643,0,0,1,32.27,29.95,7.806,7.806,0,0,1,28.4,30.991h-.03a7.568,7.568,0,0,1-1.043,3.9A7.432,7.432,0,0,1,24.47,37.72a7.863,7.863,0,0,1,0,7.772,7.688,7.688,0,0,1,3.9,6.719h.03a7.687,7.687,0,0,1,6.685,3.9,7.7,7.7,0,0,1,7.756,0A7.722,7.722,0,0,1,45.7,53.25a7.611,7.611,0,0,1,3.892-1.039A7.739,7.739,0,0,1,53.446,45.5a7.859,7.859,0,0,1,.006-7.78,7.478,7.478,0,0,1-2.825-2.837,7.565,7.565,0,0,1-1.033-3.888Z" transform="translate(21.993 24.548)" fill="#df2228"/><path d="M35.493,28.763A9.327,9.327,0,1,1,30.2,45.8a.785.785,0,0,1,.881-1.3A7.847,7.847,0,1,0,29.078,42.5a.785.785,0,0,1-1.3.879,9.314,9.314,0,0,1,7.717-14.615" transform="translate(25.483 28.06)" fill="#df2228"/><path d="M76.941,32.426a4.655,4.655,0,0,1-2.177-1.877,4.739,4.739,0,0,1-.553-2.817,4.425,4.425,0,0,1-2.817-.555A4.651,4.651,0,0,1,69.517,25,4.381,4.381,0,0,1,64.1,25a4.666,4.666,0,0,1-1.879,2.175,4.417,4.417,0,0,1-2.815.555,4.438,4.438,0,0,1-.555,2.817,4.758,4.758,0,0,1-2.134,1.877,4.541,4.541,0,0,1,0,5.419,4.758,4.758,0,0,1,2.134,1.877,4.438,4.438,0,0,1,.555,2.817,4.43,4.43,0,0,1,2.815.555A4.666,4.666,0,0,1,64.1,45.269a4.381,4.381,0,0,1,5.419,0,4.651,4.651,0,0,1,1.877-2.175,4.438,4.438,0,0,1,2.817-.555,4.739,4.739,0,0,1,.553-2.817,4.655,4.655,0,0,1,2.177-1.877" transform="translate(55.329 24.391)" fill="#fce3d9" fill-rule="evenodd"/><path d="M67.416,34.179a4.381,4.381,0,0,1,0-5.419" transform="translate(64.853 28.057)" fill="#fce3d9" fill-rule="evenodd"/><path d="M64.573,38.385a5.526,5.526,0,1,0-5.547-5.547,5.526,5.526,0,0,0,5.547,5.547" transform="translate(57.583 26.666)" fill="#f7bca9" fill-rule="evenodd"/><path d="M53.438,36.1a3.98,3.98,0,0,0-.383,2.475A6.094,6.094,0,0,0,54.8,50.519H71.232a6.095,6.095,0,0,0,.98-12.118,6.07,6.07,0,0,0-5.8-4.267,6.234,6.234,0,0,0-2.347.47A6.1,6.1,0,0,0,53.438,36.1" transform="translate(47.47 31.344)" fill="#fad6c9" fill-rule="evenodd"/><path d="M55.075,51.6a6.718,6.718,0,0,1-4.743-1.964A6.813,6.813,0,0,1,53.21,38.234a.725.725,0,1,1,.4,1.393,5.363,5.363,0,0,0-2.262,8.983,5.19,5.19,0,0,0,3.8,1.543H71.589A5.44,5.44,0,0,0,75.4,48.617a5.374,5.374,0,0,0-2.938-9.139.726.726,0,0,1-.589-.5,5.321,5.321,0,0,0-5.109-3.756,5.479,5.479,0,0,0-2.072.415.727.727,0,0,1-.857-.239,5.417,5.417,0,0,0-4.326-2.181A5.357,5.357,0,0,0,54.476,36.7a.725.725,0,0,1-1.363-.494A6.827,6.827,0,0,1,64.659,34.1a6.967,6.967,0,0,1,2.11-.336,6.764,6.764,0,0,1,6.347,4.354,6.831,6.831,0,0,1,3.309,11.529A6.984,6.984,0,0,1,71.581,51.6H55.075" transform="translate(47.111 30.986)" fill="#df2228"/><path d="M77.669,38.955a3.824,3.824,0,0,0-1.833,1.614,3.7,3.7,0,0,0-.464,2.359.727.727,0,0,1-.818.816,3.7,3.7,0,0,0-2.345.5,3.926,3.926,0,0,0-1.632,1.81.726.726,0,0,1-.662.429.717.717,0,0,1-.3-.065.725.725,0,0,1-.365-.958,5.353,5.353,0,0,1,2.223-2.466,5.2,5.2,0,0,1,2.412-.725,5.228,5.228,0,0,1,2.452-4.251,5.177,5.177,0,0,1-.006-4.9,5.137,5.137,0,0,1-2.446-4.257,5.006,5.006,0,0,1-2.426-.7A5.172,5.172,0,0,1,69.645,26.4a5.238,5.238,0,0,1-4.919,0,5.216,5.216,0,0,1-4.244,2.452,5.211,5.211,0,0,1-.689,2.456,5.331,5.331,0,0,1-1.774,1.816,5.323,5.323,0,0,1-.443,5.589.726.726,0,0,1-1.177-.849,3.886,3.886,0,0,0,0-4.613.726.726,0,0,1,.33-1.1,3.7,3.7,0,0,0,1.814-1.573A3.751,3.751,0,0,0,59,28.185a.724.724,0,0,1,.818-.812,3.7,3.7,0,0,0,2.357-.466,3.809,3.809,0,0,0,1.614-1.831.724.724,0,0,1,.486-.417.713.713,0,0,1,.626.128,3.767,3.767,0,0,0,4.571,0,.713.713,0,0,1,.626-.128.724.724,0,0,1,.486.417A3.809,3.809,0,0,0,72.2,26.906a3.691,3.691,0,0,0,2.357.466.724.724,0,0,1,.818.812,3.754,3.754,0,0,0,.464,2.4,3.694,3.694,0,0,0,1.806,1.561" transform="translate(54.887 24.031)" fill="#df2228"/><path d="M67.631,29.007a3.713,3.713,0,0,0,0,4.569" transform="translate(65.211 28.298)" fill="#df2228"/><path d="M64.91,39.576a6.294,6.294,0,1,1,0-12.588,6.411,6.411,0,0,1,3.518,1.061.726.726,0,0,1-.806,1.207,4.947,4.947,0,0,0-2.712-.816,4.843,4.843,0,1,0,4.822,4.82,4.937,4.937,0,0,0-.818-2.712.725.725,0,0,1,1.207-.8,6.4,6.4,0,0,1,1.061,3.516,6.3,6.3,0,0,1-6.272,6.316" transform="translate(57.162 26.328)" fill="#df2228"/><path d="M130.855,29.334a3.887,3.887,0,0,1,.411,2.513,6.156,6.156,0,0,1-1.782,12.067H112.893a6.165,6.165,0,0,1-1-12.248,6.262,6.262,0,0,1,5.9-4.3,5.773,5.773,0,0,1,2.331.5,6.171,6.171,0,0,1,10.739,1.462" transform="translate(104.117 24.737)" fill="#fad6c9" fill-rule="evenodd"/><path d="M106.916,33.725a4.307,4.307,0,0,0-.411,2.651,6.554,6.554,0,0,0,1.873,12.843h17.6a6.554,6.554,0,0,0,1.051-13.027,6.461,6.461,0,0,0-6.215-4.524,6.621,6.621,0,0,0-2.513.456,6.537,6.537,0,0,0-11.381,1.6" transform="translate(99.309 28.754)" fill="#fad6c9" fill-rule="evenodd"/><path d="M127.378,44.982h-.093a.777.777,0,0,1-.767-.788.752.752,0,0,1,.788-.767,5.135,5.135,0,0,0,3.767-1.541,5.335,5.335,0,0,0-2.254-8.955.777.777,0,1,1,.427-1.494,6.891,6.891,0,0,1,2.918,11.557,6.782,6.782,0,0,1-4.787,1.987m-17.586-12.2a.757.757,0,0,1-.245-.04.778.778,0,0,1-.492-.984,6.856,6.856,0,0,1,8.661-4.457,6.938,6.938,0,0,1,11.68,2.145.777.777,0,0,1-1.456.543,5.311,5.311,0,0,0-5.03-3.471,5.38,5.38,0,0,0-4.317,2.161.777.777,0,0,1-.893.257,5.82,5.82,0,0,0-2.059-.407,5.4,5.4,0,0,0-5.113,3.72.776.776,0,0,1-.737.531" transform="translate(106.35 24.354)" fill="#df2228"/><path d="M127.135,50.265a.777.777,0,0,1-.075-1.551,5.774,5.774,0,0,0,.227-11.438.776.776,0,0,1-.618-.533,5.775,5.775,0,0,0-5.474-3.981,5.861,5.861,0,0,0-2.217.443.772.772,0,0,1-.921-.253,5.8,5.8,0,0,0-4.633-2.339,5.74,5.74,0,0,0-5.4,3.74.777.777,0,0,1-1.46-.531,7.313,7.313,0,0,1,12.365-2.254,7.384,7.384,0,0,1,2.26-.36,7.255,7.255,0,0,1,6.8,4.623,7.328,7.328,0,0,1-.782,14.431c-.026,0-.051,0-.077,0m-19.149,0c-.026,0-.051,0-.077,0A7.324,7.324,0,0,1,101.4,43a7.444,7.444,0,0,1,5.259-7.051.776.776,0,1,1,.452,1.486A5.878,5.878,0,0,0,102.958,43a5.755,5.755,0,0,0,5.1,5.715.777.777,0,0,1-.075,1.551" transform="translate(98.925 28.349)" fill="#df2228"/><path d="M107.548,46.071a.779.779,0,0,1-.717-1.079L109.8,37.91a.777.777,0,1,1,1.432.6L108.265,45.6a.777.777,0,0,1-.717.476" transform="translate(104.161 36.519)" fill="#df2228"/><path d="M109.584,43.409a.76.76,0,0,1-.306-.063.773.773,0,0,1-.407-1.019l1.507-3.52a.777.777,0,0,1,1.428.612l-1.509,3.52a.776.776,0,0,1-.713.47" transform="translate(106.147 37.399)" fill="#df2228"/><path d="M110.879,46.071a.779.779,0,0,1-.717-1.079l2.971-7.082a.777.777,0,0,1,1.434.6L111.6,45.6a.777.777,0,0,1-.717.476" transform="translate(107.41 36.519)" fill="#df2228"/><path d="M112.915,43.409a.766.766,0,0,1-.306-.063.775.775,0,0,1-.407-1.019l1.507-3.52a.777.777,0,0,1,1.428.612l-1.509,3.52a.774.774,0,0,1-.713.47" transform="translate(109.397 37.399)" fill="#df2228"/><path d="M106.276,43.409a.776.776,0,0,1-.717-1.075l1.462-3.52a.776.776,0,1,1,1.432.6l-1.46,3.52a.777.777,0,0,1-.717.478" transform="translate(102.92 37.399)" fill="#df2228"/><path d="M103.942,31.277a3.887,3.887,0,0,1,.411,2.513,6.157,6.157,0,0,1-1.782,12.067H85.981a6.165,6.165,0,0,1-1.006-12.248,6.262,6.262,0,0,1,5.9-4.3,5.765,5.765,0,0,1,2.331.5,6.173,6.173,0,0,1,10.741,1.462" transform="translate(77.86 26.633)" fill="#fad6c9" fill-rule="evenodd"/><path d="M80,35.668a4.307,4.307,0,0,0-.411,2.651,6.554,6.554,0,0,0,1.873,12.843h17.6a6.554,6.554,0,0,0,1.051-13.027A6.458,6.458,0,0,0,93.9,33.612a6.621,6.621,0,0,0-2.513.456A6.537,6.537,0,0,0,80,35.668" transform="translate(73.053 30.649)" fill="#fad6c9" fill-rule="evenodd"/><path d="M81.8,52.369a7.233,7.233,0,0,1-5.111-2.116A7.377,7.377,0,0,1,79.8,37.914a.777.777,0,0,1,.446,1.488,5.826,5.826,0,0,0-2.46,9.747,5.459,5.459,0,0,0,4.1,1.665h17.7a5.709,5.709,0,0,0,4.107-1.665,5.831,5.831,0,0,0-3.133-9.907.776.776,0,0,1-.616-.526,5.816,5.816,0,0,0-5.524-4.036,5.723,5.723,0,0,0-2.217.444.773.773,0,0,1-.911-.243A5.9,5.9,0,0,0,86.6,32.533a5.775,5.775,0,0,0-5.441,3.74.777.777,0,1,1-1.46-.531,7.33,7.33,0,0,1,6.9-4.763,7.411,7.411,0,0,1,5.547,2.511,7.17,7.17,0,0,1,2.268-.362,7.359,7.359,0,0,1,6.841,4.668,7.387,7.387,0,0,1,3.524,12.46,7.475,7.475,0,0,1-5.21,2.114H81.8" transform="translate(72.668 30.221)" fill="#df2228"/><path d="M100.464,46.971h-.093a.777.777,0,0,1-.767-.788.737.737,0,0,1,.788-.767,5.169,5.169,0,0,0,3.779-1.533,5.352,5.352,0,0,0-2.266-8.963.777.777,0,1,1,.427-1.494,6.932,6.932,0,0,1,5,6.644,6.856,6.856,0,0,1-2.066,4.917,6.786,6.786,0,0,1-4.8,1.983m-17.586-12.2a.757.757,0,0,1-.245-.04.778.778,0,0,1-.492-.984,6.952,6.952,0,0,1,6.587-4.781,6.425,6.425,0,0,1,2.082.35,6.911,6.911,0,0,1,11.672,2.12.777.777,0,1,1-1.456.543,5.356,5.356,0,0,0-9.34-1.272.776.776,0,0,1-.936.251,5.329,5.329,0,0,0-7.134,3.281.776.776,0,0,1-.737.531" transform="translate(80.094 26.294)" fill="#df2228"/></g></g></svg>