<svg xmlns="http://www.w3.org/2000/svg" xmlns:xlink="http://www.w3.org/1999/xlink" width="280" height="280" viewBox="0 0 280 280"><defs><clipPath id="a"><rect width="280" height="280" fill="none"/></clipPath></defs><g clip-path="url(#a)"><g clip-path="url(#a)"><g opacity="0.5"><g clip-path="url(#a)"><path d="M280,140A140,140,0,1,1,140,0,140,140,0,0,1,280,140" fill="#fff"/></g></g><path d="M59.19,113.811c6.2,0,11.277,3.242,11.277,7.189s-5.075,7.189-11.277,7.189c-6.344,0-11.417-3.242-11.417-7.189s5.073-7.189,11.417-7.189" transform="translate(46.605 111.029)" fill="#fad6c9" fill-rule="evenodd"/><path d="M91.8,124.014c6.2,0,11.277,3.242,11.277,7.189,0,4.087-5.075,7.329-11.277,7.329-6.344,0-11.417-3.242-11.417-7.329,0-3.947,5.073-7.189,11.417-7.189" transform="translate(78.414 120.983)" fill="#fad6c9" fill-rule="evenodd"/><path d="M108.064,103.537c6.344,0,11.417,3.242,11.417,7.189,0,4.087-5.073,7.329-11.417,7.329s-11.417-3.242-11.417-7.329c0-3.947,5.073-7.189,11.417-7.189" transform="translate(94.285 101.007)" fill="#fad6c9" fill-rule="evenodd"/><path d="M86.158,125.028l12.827-5.073-12.827-5.215Z" transform="translate(84.053 111.935)" fill="#ec7b65" fill-rule="evenodd"/><path d="M75.458,93.334c6.344,0,11.417,3.242,11.417,7.189S81.8,107.71,75.458,107.71c-6.2,0-11.417-3.242-11.417-7.187s5.215-7.189,11.417-7.189" transform="translate(62.476 91.053)" fill="#fad6c9" fill-rule="evenodd"/><path d="M79.774,122.379c-12.122-8.74-20.157-19.169-20.157-31.293a20.157,20.157,0,0,1,40.313,0c0,12.124-8.035,22.553-20.157,31.293" transform="translate(58.16 69.197)" fill="#ec7b65" fill-rule="evenodd"/><path d="M73.579,92.5a7.612,7.612,0,1,0-7.612-7.612A7.58,7.58,0,0,0,73.579,92.5" transform="translate(64.355 75.391)" fill="#fff" fill-rule="evenodd"/><path d="M109.247,121.633c-7.746,0-13.813-4.269-13.813-9.722,0-5.377,6.067-9.587,13.813-9.587s13.813,4.21,13.813,9.587c0,5.453-6.067,9.722-13.813,9.722m0-14.52c-5.314,0-9.02,2.531-9.02,4.8,0,2.329,3.706,4.933,9.02,4.933s9.02-2.6,9.02-4.933c0-2.268-3.706-4.8-9.02-4.8" transform="translate(93.102 99.823)" fill="#df2228"/><path d="M80.955,125.956a2.387,2.387,0,0,1-1.4-.452C65.52,115.385,58.4,104.2,58.4,92.271a22.552,22.552,0,1,1,45.1,0c0,11.934-7.116,23.114-21.152,33.233a2.387,2.387,0,0,1-1.4.452m0-51.45A17.781,17.781,0,0,0,63.2,92.271c0,9.919,5.972,19.438,17.758,28.314,11.788-8.876,17.76-18.394,17.76-28.314a17.782,17.782,0,0,0-17.76-17.764" transform="translate(56.977 68.014)" fill="#df2228"/><path d="M74.76,96.081a10.006,10.006,0,1,1,0-20.012,9.446,9.446,0,0,1,3.153.545A2.395,2.395,0,1,1,76.4,81.158a4.819,4.819,0,0,0-1.64-.3,5.217,5.217,0,1,0,5.215,5.215,9.837,9.837,0,0,0-.235-1.782,2.4,2.4,0,0,1,4.7-.942,14.911,14.911,0,0,1,.328,2.724A10.017,10.017,0,0,1,74.76,96.081" transform="translate(63.171 74.21)" fill="#df2228"/><path d="M76.64,107.737c-7.616,0-13.813-4.3-13.813-9.581a2.4,2.4,0,0,1,4.793,0c0,2.264,3.858,4.793,9.02,4.793,5.318,0,9.022-2.525,9.022-4.793a2.4,2.4,0,0,1,4.793,0c0,5.375-6.067,9.581-13.815,9.581" transform="translate(61.291 93.421)" fill="#df2228"/><path d="M92.981,141.484c-7.748,0-13.815-4.269-13.815-9.722,0-3.36,2.515-6.482,6.561-8.143a2.4,2.4,0,0,1,1.819,4.439c-2.179.893-3.588,2.345-3.588,3.7,0,2.331,3.7,4.933,9.022,4.933,5.233,0,8.88-2.6,8.88-4.933,0-1.359-1.409-2.811-3.59-3.7a2.4,2.4,0,0,1,1.821-4.439c4.044,1.661,6.561,4.783,6.561,8.143,0,5.453-6.006,9.722-13.673,9.722" transform="translate(77.231 120.426)" fill="#df2228"/><path d="M60.373,131.765c-7.746,0-13.813-4.2-13.813-9.58s6.067-9.587,13.813-9.587c7.667,0,13.675,4.21,13.675,9.587s-6.008,9.58-13.675,9.58m0-14.378c-5.314,0-9.02,2.531-9.02,4.8s3.706,4.793,9.02,4.793c5.085,0,8.882-2.531,8.882-4.793s-3.8-4.8-8.882-4.8" transform="translate(45.422 109.846)" fill="#df2228"/><path d="M100.3,135.369a2.479,2.479,0,0,1-.719-.113L62.793,123.7a2.4,2.4,0,1,1,1.438-4.573l36.789,11.557a2.4,2.4,0,0,1-.719,4.686" transform="translate(59.621 116.115)" fill="#df2228"/><path d="M60.156,126.921a2.4,2.4,0,0,1-.49-4.745l67.8-14.236a2.4,2.4,0,1,1,.986,4.69l-67.8,14.238a2.536,2.536,0,0,1-.5.053" transform="translate(56.349 105.251)" fill="#df2228"/><path d="M116.709,114.895a2.466,2.466,0,0,1-.717-.113L79.063,103.225A2.4,2.4,0,0,1,80.5,98.652l36.931,11.557a2.4,2.4,0,0,1-.717,4.686" transform="translate(75.491 96.134)" fill="#df2228"/><path d="M87.342,143.829a2.393,2.393,0,0,1-2.4-2.394V115.922a2.4,2.4,0,0,1,4.793,0v25.512a2.393,2.393,0,0,1-2.4,2.394" transform="translate(82.87 110.753)" fill="#df2228"/><path d="M100.17,123.538a2.4,2.4,0,0,1-.9-.18L86.44,118.143a2.4,2.4,0,0,1,1.806-4.439l12.827,5.215a2.4,2.4,0,0,1-.9,4.619" transform="translate(82.87 110.752)" fill="#df2228"/><path d="M90.553,123.5a2.4,2.4,0,0,1-.871-4.633l6.486-2.535A2.4,2.4,0,0,1,97.91,120.8l-6.486,2.535a2.375,2.375,0,0,1-.871.166" transform="translate(86.001 113.328)" fill="#df2228"/><path d="M154.639,88.159a4.366,4.366,0,0,1-4.471,4.471H101.187l-13.094,13.1L75,92.63H65.368A4.366,4.366,0,0,1,60.9,88.159v-55.1a4.463,4.463,0,0,1,4.471-4.471h84.8a4.463,4.463,0,0,1,4.471,4.471Z" transform="translate(59.409 27.893)" fill="#fff8f6" fill-rule="evenodd"/><path d="M96.693,58a3.521,3.521,0,0,0,3.491-3.538c0-3.3-2.869-4.735-3.491-7.126-.67,2.39-3.538,3.825-3.538,7.126A3.53,3.53,0,0,0,96.693,58" transform="translate(90.878 46.175)" fill="#fad6c9" fill-rule="evenodd"/><path d="M89.077,39.525l10.33-3.013-.383-1.865L76.5,39.141V45.5H89.077Z" transform="translate(74.629 33.8)" fill="#f5ae9a" fill-rule="evenodd"/><path d="M82.043,55.306l21.425-12.77v2.345H111.6V40.24a1.807,1.807,0,0,0-1.818-1.768h-5.214a5.535,5.535,0,0,0-2.151.381L82.043,47.032Z" transform="translate(80.038 37.532)" fill="#fff8f6" fill-rule="evenodd"/><path d="M90.656,50.164H76.5v5.069H92.568V52.126a1.959,1.959,0,0,0-1.912-1.962" transform="translate(74.629 48.938)" fill="#f5ae9a" fill-rule="evenodd"/><rect width="6.264" height="2.535" transform="translate(184.415 82.412)" fill="#f5ae9a"/><rect width="9.327" height="19.799" transform="translate(152.754 79.303)" fill="#fce3d9"/><path d="M89.478,44.5H76.9a.812.812,0,0,1-.812-.814V37.324a.812.812,0,1,1,1.624,0v5.547H88.666V40.145a.812.812,0,1,1,1.624,0v3.538a.811.811,0,0,1-.812.814" transform="translate(74.228 35.618)" fill="#df2228"/><path d="M81.539,43.034a.813.813,0,0,1-.227-1.594l17.551-5.1L98.793,36,77.06,40.34a.813.813,0,0,1-.32-1.594l22.525-4.494a.808.808,0,0,1,.956.632l.383,1.865a.815.815,0,0,1-.569.946L81.766,43a.819.819,0,0,1-.227.032" transform="translate(74.228 33.398)" fill="#df2228"/><path d="M87.05,61.155H77.725a.812.812,0,0,1-.814-.812V43.316a.813.813,0,0,1,1.626,0V59.529h7.7V50.108a.812.812,0,1,1,1.624,0V60.343a.811.811,0,0,1-.812.812m0-14.538a.811.811,0,0,1-.812-.814V40.542a.812.812,0,0,1,1.624,0V45.8a.811.811,0,0,1-.812.814" transform="translate(75.031 38.759)" fill="#df2228"/><path d="M82.445,56.521a.813.813,0,0,1-.417-1.511l19.418-11.575a.814.814,0,0,1,.834,1.4L82.862,56.406a.824.824,0,0,1-.417.115m0-8.274a.813.813,0,0,1-.3-1.569L102.514,38.5a6.329,6.329,0,0,1,2.456-.443h5.212a2.61,2.61,0,0,1,2.629,2.584v4.639A.812.812,0,0,1,112,46.1H103.87a.813.813,0,0,1,0-1.626h7.317V40.643a.994.994,0,0,0-1.006-.956H104.97a4.733,4.733,0,0,0-1.851.324L82.747,48.188a.815.815,0,0,1-.3.059" transform="translate(79.636 37.129)" fill="#df2228"/><path d="M100.015,45.465H93.749a.811.811,0,0,1-.812-.814V42.118a.811.811,0,1,1,1.622,0v1.721h5.456a.813.813,0,0,1,0,1.626" transform="translate(90.666 40.295)" fill="#df2228"/><path d="M92.968,56.448H76.9a.809.809,0,0,1-.81-.812V50.565a.809.809,0,0,1,.81-.812H91.056a2.787,2.787,0,0,1,2.726,2.774v3.11a.812.812,0,0,1-.814.812M77.711,54.822H92.156v-2.3a1.153,1.153,0,0,0-1.1-1.148H77.711Z" transform="translate(74.229 48.537)" fill="#df2228"/><path d="M97.1,59.211a4.356,4.356,0,0,1-4.352-4.352,7.808,7.808,0,0,1,2.149-5,7.35,7.35,0,0,0,1.42-2.345.811.811,0,0,1,.782-.593H97.1a.809.809,0,0,1,.778.608,7.144,7.144,0,0,0,1.4,2.357,7.8,7.8,0,0,1,2.118,4.972,4.332,4.332,0,0,1-4.3,4.352m-.014-9.585c-.281.429-.595.834-.907,1.231a6.331,6.331,0,0,0-1.808,4,2.7,2.7,0,1,0,5.407,0,6.318,6.318,0,0,0-1.782-3.979c-.31-.4-.628-.818-.911-1.254" transform="translate(90.476 45.774)" fill="#df2228"/><path d="M95.37,46.367h-.047a.813.813,0,0,1,0-1.626.831.831,0,0,1,.836.812.791.791,0,0,1-.788.814" transform="translate(92.201 43.648)" fill="#df2228"/><path d="M121.7,73.53A4.366,4.366,0,0,1,117.232,78H87.847l-13.1,13.1L61.655,78H32.431A4.366,4.366,0,0,1,27.96,73.53v-55.1a4.462,4.462,0,0,1,4.471-4.471h84.8a4.462,4.462,0,0,1,4.471,4.471Z" transform="translate(27.277 13.622)" fill="#fad6c9" fill-rule="evenodd"/><path d="M73.091,92.146a2.717,2.717,0,0,1-1.92-.792l-12.3-12.3H30.77a7.106,7.106,0,0,1-7.185-7.185V16.772A7.191,7.191,0,0,1,30.77,9.591h84.8a7.191,7.191,0,0,1,7.185,7.181V52.226a2.715,2.715,0,0,1-5.431,0V16.772a1.762,1.762,0,0,0-1.754-1.756H30.77a1.738,1.738,0,0,0-1.754,1.756V71.867a1.665,1.665,0,0,0,1.754,1.76H60a2.727,2.727,0,0,1,1.92.792L73.091,85.593,84.268,74.419a2.722,2.722,0,0,1,1.918-.792h29.386a1.664,1.664,0,0,0,1.754-1.76V64.84a2.715,2.715,0,0,1,5.431,0v7.027a7.106,7.106,0,0,1-7.185,7.185H87.313l-12.3,12.3a2.717,2.717,0,0,1-1.92.792" transform="translate(23.009 9.357)" fill="#df2228"/><path d="M85.068,106.779h0a2.727,2.727,0,0,1-1.92-.792l-12.3-12.308H60.634a2.712,2.712,0,1,1,0-5.425h11.34a2.727,2.727,0,0,1,1.92.792l11.174,11.18,11.178-11.18a2.722,2.722,0,0,1,1.918-.792h48.98A1.662,1.662,0,0,0,148.9,86.5V31.4a1.759,1.759,0,0,0-1.756-1.754H102.635a2.712,2.712,0,1,1,0-5.425h44.509a7.19,7.19,0,0,1,7.187,7.179V86.5a7.106,7.106,0,0,1-7.187,7.179H99.29l-12.3,12.308a2.727,2.727,0,0,1-1.92.792" transform="translate(56.504 23.628)" fill="#df2228"/><path d="M72.8,19.144a22.525,22.525,0,1,1-31.3,5.7,22.551,22.551,0,0,1,31.3-5.7" transform="translate(36.577 14.79)" fill="#fff8f6" fill-rule="evenodd"/><path d="M45.328,25.456a.84.84,0,0,1-.215-1.183l1.059-1.531a.83.83,0,0,1,1.154-.172L62.154,32.827a.868.868,0,0,1,.245,1.142L61.34,35.5a.875.875,0,0,1-1.183.215L45.328,25.456" transform="translate(43.859 21.864)" fill="#f5ae9a" fill-rule="evenodd"/><path d="M60.608,33.262l-3.086,4.461A5.473,5.473,0,0,1,49.9,39.111l-4.022-2.784a5.46,5.46,0,0,1-1.345-7.592l3.086-4.461Z" transform="translate(42.488 23.682)" fill="#fff" fill-rule="evenodd"/><path d="M50.154,29.23l5.115-7.393a1.542,1.542,0,0,0-2.537-1.754l-5.115,7.393Z" transform="translate(46.453 18.956)" fill="#fce3d9" fill-rule="evenodd"/><path d="M50.916,29.758l5.115-7.393a1.543,1.543,0,1,1,2.537,1.756l-5.115,7.391Z" transform="translate(49.672 21.182)" fill="#fce3d9" fill-rule="evenodd"/><path d="M60.089,36.9,45.261,26.646a1.732,1.732,0,0,1-.443-2.44l1.057-1.531a1.733,1.733,0,0,1,2.414-.4L63.114,32.531a1.772,1.772,0,0,1,.476,2.4l-1.059,1.531a1.78,1.78,0,0,1-2.442.443M46.3,25.235l.016.01Zm.03-.045L61.117,35.419,62.1,33.9,47.26,23.759Z" transform="translate(43.41 21.418)" fill="#df2228"/><path d="M49.832,40.3l-4.024-2.784a6.362,6.362,0,0,1-1.575-8.849l3.088-4.461a.9.9,0,1,1,1.486,1.027L45.721,29.7a4.553,4.553,0,0,0,1.116,6.334l4.022,2.784a4.583,4.583,0,0,0,6.365-1.158l3.086-4.463A.9.9,0,1,1,61.8,34.224l-3.086,4.461a6.389,6.389,0,0,1-8.88,1.616" transform="translate(42.041 23.235)" fill="#df2228"/><path d="M47.55,28.665a.9.9,0,0,1-.229-1.256l5.113-7.393A2.447,2.447,0,0,1,56.457,22.8l-3.3,4.767a.9.9,0,1,1-1.488-1.029l3.3-4.767a.639.639,0,0,0-1.051-.727l-5.113,7.391a.9.9,0,0,1-1.258.229" transform="translate(46.007 18.51)" fill="#df2228"/><path d="M52.49,32.7a.9.9,0,0,1-.229-1.256l5.113-7.393a.638.638,0,1,0-1.049-.727l-3.3,4.769a.9.9,0,0,1-1.488-1.029l3.3-4.767a2.447,2.447,0,1,1,4.024,2.784l-5.113,7.391a.9.9,0,0,1-1.258.229" transform="translate(50.121 20.736)" fill="#df2228"/><path d="M47.1,57.382a23.526,23.526,0,1,1,7.414,3.384,6.631,6.631,0,0,1-4.745-8.086,7.312,7.312,0,0,1,.944-2.11L53.5,46.546a.9.9,0,0,1,1.488,1.029L52.2,51.6a5.39,5.39,0,0,0-.689,1.569,4.82,4.82,0,0,0,3.465,5.85A21.548,21.548,0,1,0,48.131,55.9.9.9,0,1,1,47.1,57.382" transform="translate(36.131 14.341)" fill="#df2228"/></g></g></svg>