<svg xmlns="http://www.w3.org/2000/svg" xmlns:xlink="http://www.w3.org/1999/xlink" width="280" height="280" viewBox="0 0 280 280"><defs><clipPath id="a"><rect width="280" height="280" fill="none"/></clipPath></defs><g clip-path="url(#a)"><g clip-path="url(#a)"><g opacity="0.5"><g clip-path="url(#a)"><path d="M280,140A140,140,0,1,1,140,0,140,140,0,0,1,280,140" fill="#fff"/></g></g><path d="M112.787,151.851c1.612-9.8,3.9-31.3,2.821-35.594-1.075-4.164-8.463-12.359-16.656-19.746L91.7,90.063,77.326,111.018l9.807,33.041v7.792Z" transform="translate(75.436 87.862)" fill="#fbd7c9" fill-rule="evenodd"/><rect width="33.043" height="11.282" transform="translate(159.343 239.712)" fill="#ea6d53"/><path d="M59.773,69.53h50.235a6.366,6.366,0,0,1,6.448,6.448v77.233a6.478,6.478,0,0,1-6.448,6.581H59.773a6.565,6.565,0,0,1-6.448-6.581V75.978a6.45,6.45,0,0,1,6.448-6.448" transform="translate(52.022 67.831)" fill="#fff" fill-rule="evenodd"/><rect width="63.131" height="60.442" transform="translate(105.347 152.272)" fill="#fff8f4"/><path d="M105.281,145.186l-9.4-30.759a49.052,49.052,0,0,1-10.745-11.685c-7.523-11.954-13.7-3.358-8.866,6.045,4.7,9.536,10.208,18.669,13.566,28.608v7.792Z" transform="translate(72.733 94.527)" fill="#fbd7c9" fill-rule="evenodd"/><path d="M76.732,114.914A15.111,15.111,0,1,0,61.688,99.87a15.134,15.134,0,0,0,15.044,15.044" transform="translate(60.18 82.622)" fill="#ed7e63" fill-rule="evenodd"/><path d="M106.158,153.47a2.328,2.328,0,0,1-.369-.03,2.283,2.283,0,0,1-1.889-2.62c1.713-10.571,3.758-31.216,2.861-34.809C105.954,113,96.44,100.6,85.385,95.07a2.286,2.286,0,0,1,2.047-4.087c11.776,5.893,22.446,19.017,23.752,23.885,1.268,5.091-1.371,28.015-2.778,36.684a2.283,2.283,0,0,1-2.248,1.918" transform="translate(82.069 88.526)" fill="#de001c"/><path d="M90.895,140.864a2.284,2.284,0,0,1-2.175-1.586c-2.248-7.027-5.816-13.787-9.263-20.327-1.416-2.691-2.833-5.381-4.178-8.106-3.04-5.919-2.462-12.3,1.345-14.489,1.31-.755,6.022-2.543,11.63,6.207A47.61,47.61,0,0,0,98.4,113.858a2.284,2.284,0,1,1-2.924,3.509,51.975,51.975,0,0,1-11.069-12.337c-2.786-4.344-4.905-5.057-5.506-4.714-1.023.589-1.786,4.115.458,8.477,1.341,2.722,2.738,5.376,4.137,8.027,3.54,6.715,7.2,13.655,9.574,21.065a2.286,2.286,0,0,1-2.175,2.979" transform="translate(71.54 93.341)" fill="#de001c"/><path d="M114.894,136.034H95.955a2.284,2.284,0,0,1,0-4.568h16.658V124.75H84v6.717h3.092a2.284,2.284,0,0,1,0,4.568H81.717a2.281,2.281,0,0,1-2.282-2.284V122.466a2.281,2.281,0,0,1,2.282-2.284h33.178a2.282,2.282,0,0,1,2.282,2.284V133.75a2.282,2.282,0,0,1-2.282,2.284" transform="translate(77.494 117.245)" fill="#de001c"/><path d="M100.66,163.2H60.9a8.807,8.807,0,0,1-8.732-8.866V77.1A8.738,8.738,0,0,1,60.9,68.375h50.235a8.634,8.634,0,0,1,8.728,8.728v54a2.282,2.282,0,1,1-4.564,0v-54a4.07,4.07,0,0,0-4.164-4.161H60.9a4.171,4.171,0,0,0-4.17,4.161v77.235a4.3,4.3,0,0,0,4.17,4.3H100.66a2.284,2.284,0,0,1,0,4.567" transform="translate(50.895 66.704)" fill="#de001c"/><path d="M82.341,78H65.351c-.391,0-.705-1.023-.705-2.284s.314-2.284.705-2.284h16.99c.391,0,.705,1.023.705,2.284S82.732,78,82.341,78" transform="translate(63.066 71.633)" fill="#de001c"/><path d="M71.633,114.824h-1.61a2.284,2.284,0,0,1,0-4.567h1.61a2.284,2.284,0,0,1,0,4.567" transform="translate(66.085 107.561)" fill="#de001c"/><path d="M77.86,118.326a17.395,17.395,0,0,1,0-34.79A17.166,17.166,0,0,1,85.6,85.387a2.285,2.285,0,0,1-2.045,4.087A12.588,12.588,0,0,0,77.86,88.1a12.827,12.827,0,0,0,0,25.655,12.389,12.389,0,0,0,2.934-.332,2.282,2.282,0,1,1,1.11,4.427,16.885,16.885,0,0,1-4.044.472m14.913-12.9a2.375,2.375,0,0,1-.454-.043,2.288,2.288,0,0,1-1.79-2.689,9.235,9.235,0,0,0,.227-1.7,4.326,4.326,0,0,0-.055-.541,7.06,7.06,0,0,1-.079-.936,2.281,2.281,0,0,1,4.562-.008A11.237,11.237,0,0,1,95.318,101a14.214,14.214,0,0,1-.31,2.6,2.281,2.281,0,0,1-2.234,1.835" transform="translate(59.055 81.494)" fill="#de001c"/><path d="M72.752,104.255a2.29,2.29,0,0,1-1.657-.713l-4.834-5.1A2.283,2.283,0,0,1,69.573,95.3l3.169,3.349L83.576,87.111a2.284,2.284,0,0,1,3.331,3.127l-12.489,13.3a2.287,2.287,0,0,1-1.661.719Z" transform="translate(64.028 84.282)" fill="#de001c"/><path d="M184.413,97.45a3.233,3.233,0,0,1-3.238,3.238H120.391l-9.481,9.479-9.481-9.479H40.76a3.163,3.163,0,0,1-3.238-3.238V18.05a3.233,3.233,0,0,1,3.238-3.238H181.175a3.309,3.309,0,0,1,3.238,3.238Z" transform="translate(36.605 14.45)" fill="#fff" fill-rule="evenodd"/><path d="M106.879,108.1a1.97,1.97,0,0,1-1.391-.573l-8.9-8.908H36.729a5.144,5.144,0,0,1-5.2-5.2v-79.4a5.205,5.205,0,0,1,5.2-5.2H177.145a5.266,5.266,0,0,1,5.2,5.2V79.2a1.966,1.966,0,0,1-3.931,0V14.018a1.337,1.337,0,0,0-1.27-1.27H36.729a1.258,1.258,0,0,0-1.27,1.27v79.4a1.2,1.2,0,0,0,1.27,1.274H97.4a1.966,1.966,0,0,1,1.391.575l8.09,8.09,8.092-8.09a1.966,1.966,0,0,1,1.391-.575h60.784a1.26,1.26,0,0,0,1.27-1.274V88.33a1.966,1.966,0,0,1,3.931,0v5.085a5.207,5.207,0,0,1-5.2,5.2h-59.97l-8.906,8.908a1.97,1.97,0,0,1-1.391.573" transform="translate(30.756 8.604)" fill="#d01"/><path d="M78.92,19.821a8.079,8.079,0,0,1-5.138,1.011,8.1,8.1,0,0,1-1.013,5.14A8.7,8.7,0,0,1,68.876,29.4a8.3,8.3,0,0,1,0,9.888,8.7,8.7,0,0,1,3.892,3.426,8.1,8.1,0,0,1,1.013,5.14,8.613,8.613,0,0,1,5.138,1.011,8.5,8.5,0,0,1,3.426,3.971,7.994,7.994,0,0,1,9.89,0,8.178,8.178,0,0,1,8.564-4.982,8.648,8.648,0,0,1,1.011-5.14,8.507,8.507,0,0,1,3.971-3.426,7.991,7.991,0,0,1,0-9.888,8.507,8.507,0,0,1-3.971-3.426,8.648,8.648,0,0,1-1.011-5.14,7.762,7.762,0,0,1-5.061-1.011,8.415,8.415,0,0,1-3.5-3.894,8.291,8.291,0,0,1-9.89,0,8.7,8.7,0,0,1-3.426,3.894" transform="translate(67.193 15.538)" fill="#fce3d9" fill-rule="evenodd"/><path d="M83.215,40.311A10.083,10.083,0,1,0,73.092,30.267,10.069,10.069,0,0,0,83.215,40.311" transform="translate(71.306 19.652)" fill="#f7bca9" fill-rule="evenodd"/><path d="M62.9,36.134a7.256,7.256,0,0,0-.7,4.516,11.121,11.121,0,0,0,3.193,21.8H95.363a11.122,11.122,0,0,0,1.792-22.112,11.078,11.078,0,0,0-10.591-7.786,11.39,11.39,0,0,0-4.281.855A11.138,11.138,0,0,0,62.9,36.134" transform="translate(52.851 28.188)" fill="#fad6c9" fill-rule="evenodd"/><path d="M69.048,50.8H63.91L74.576,37.328,72.707,47.45h5.14L67.179,60.922Z" transform="translate(62.348 36.415)" fill="#fce3d9" fill-rule="evenodd"/><path d="M92.964,55.046a1.324,1.324,0,0,1-1.207-1.865,9.725,9.725,0,0,1,4.054-4.5,9.517,9.517,0,0,1,4.4-1.32,9.512,9.512,0,0,1,4.461-7.748,9.536,9.536,0,0,1,0-8.961,9.725,9.725,0,0,1-3.191-3.264,9.473,9.473,0,0,1-1.27-4.473,9.751,9.751,0,0,1-7.744-4.475,9.81,9.81,0,0,1-8.973,0,9.659,9.659,0,0,1-3.343,3.185,9.894,9.894,0,0,1-4.4,1.288,9.391,9.391,0,0,1-1.26,4.449,9.7,9.7,0,0,1-3.238,3.311,9.708,9.708,0,0,1-.83,10.227,1.323,1.323,0,1,1-2.1-1.606,7.017,7.017,0,0,0,1.365-4.18A7.161,7.161,0,0,0,68.3,30.9a1.323,1.323,0,0,1,.6-2.011,6.717,6.717,0,0,0,4.145-7.15,1.324,1.324,0,0,1,.354-1.092,1.291,1.291,0,0,1,1.079-.4,7.447,7.447,0,0,0,4.362-.921,7.127,7.127,0,0,0,2.953-3.289,1.33,1.33,0,0,1,.865-.735,1.313,1.313,0,0,1,1.116.207,7.205,7.205,0,0,0,8.416,0,1.325,1.325,0,0,1,1.981.529,7.109,7.109,0,0,0,2.953,3.287,7.229,7.229,0,0,0,4.362.921,1.3,1.3,0,0,1,1.079.4,1.324,1.324,0,0,1,.354,1.092,6.71,6.71,0,0,0,4.145,7.15,1.324,1.324,0,0,1,.571,2.051,6.721,6.721,0,0,0-1.436,4.168,6.578,6.578,0,0,0,1.414,4.141,1.323,1.323,0,0,1-.5,2.059,6.975,6.975,0,0,0-3.345,2.946,6.769,6.769,0,0,0-.848,4.3,1.325,1.325,0,0,1-.375,1.114,1.341,1.341,0,0,1-1.116.375,6.741,6.741,0,0,0-4.279.913,7.129,7.129,0,0,0-2.977,3.3,1.321,1.321,0,0,1-1.207.782" transform="translate(66.384 14.883)" fill="#df2228"/><path d="M83.826,42.484a11.485,11.485,0,1,1,0-22.97,11.672,11.672,0,0,1,6.419,1.936,1.324,1.324,0,0,1-1.47,2.2,9,9,0,0,0-4.949-1.492,8.838,8.838,0,1,0,8.8,8.8,9.012,9.012,0,0,0-1.492-4.949,1.322,1.322,0,1,1,2.2-1.47,11.663,11.663,0,0,1,1.938,6.419A11.5,11.5,0,0,1,83.826,42.484" transform="translate(70.538 19.037)" fill="#df2228"/><path d="M67.833,62.9a1.346,1.346,0,0,1-.547-.119,1.327,1.327,0,0,1-.753-1.446l1.578-8.56H64.564a1.323,1.323,0,0,1-1.037-2.145L74.191,37.159A1.323,1.323,0,0,1,76.53,38.22l-1.577,8.558H78.5a1.327,1.327,0,0,1,1.039,2.147L68.872,62.4a1.33,1.33,0,0,1-1.039.5M67.3,50.127h2.4A1.325,1.325,0,0,1,71,51.692l-.9,4.886,5.662-7.15h-2.4a1.325,1.325,0,0,1-1.3-1.565l.9-4.886Z" transform="translate(61.694 35.762)" fill="#df2228"/><path d="M65.88,64.432a12.258,12.258,0,0,1-8.653-3.584A12.434,12.434,0,0,1,62.48,40.034a1.323,1.323,0,0,1,.735,2.543,9.783,9.783,0,0,0-4.127,16.389A9.641,9.641,0,0,0,65.9,61.785c.04,0,.081,0,.122,0h6.634a1.324,1.324,0,0,1,0,2.647H66.04l-.16,0m30.277,0-.158,0H88a1.324,1.324,0,0,1,0-2.647h8.017a9.8,9.8,0,0,0,1.6-19.479,1.317,1.317,0,0,1-1.073-.917,9.715,9.715,0,0,0-9.329-6.855,10.01,10.01,0,0,0-3.775.755,1.316,1.316,0,0,1-1.567-.433,9.812,9.812,0,0,0-17.085,2.4,1.324,1.324,0,0,1-2.483-.921A12.457,12.457,0,0,1,83.37,32.5a12.6,12.6,0,0,1,3.846-.614A12.353,12.353,0,0,1,98.8,39.828a12.464,12.464,0,0,1,6.033,21.038,12.27,12.27,0,0,1-8.681,3.566" transform="translate(52.197 27.534)" fill="#df2228"/></g></g></svg>